<svg xmlns="http://www.w3.org/2000/svg" version="1.1" xmlns:xlink="http://www.w3.org/1999/xlink" xmlns:svgjs="http://svgjs.dev/svgjs" width="1440" height="560" preserveAspectRatio="none" viewBox="0 0 1440 560"><g mask="url(&quot;#SvgjsMask1006&quot;)" fill="none"><rect width="1440" height="560" x="0" y="0" fill="rgba(24, 52, 80, 1)"></rect><circle r="8.87" cx="711.61" cy="174.76" filter="url(#SvgjsFilter1007)" fill="rgba(51, 121, 194, 0.73)"></circle><circle r="7.075" cx="1369.365" cy="402.91499999999996" filter="url(#SvgjsFilter1007)" fill="rgba(51, 121, 194, 0.73)"></circle><circle r="7.735" cx="103.375" cy="55.425" filter="url(#SvgjsFilter1007)" fill="rgba(51, 121, 194, 0.73)"></circle><circle r="5.385" cx="1188.195" cy="445.125" filter="url(#SvgjsFilter1007)" fill="rgba(51, 121, 194, 0.73)"></circle><circle r="6.015" cx="322.365" cy="465.485" filter="url(#SvgjsFilter1007)" fill="rgba(51, 121, 194, 0.73)"></circle><circle r="6.8" cx="862.53" cy="182.01000000000002" filter="url(#SvgjsFilter1007)" fill="rgba(51, 121, 194, 0.73)"></circle><circle r="8.225" cx="143.055" cy="49.895" filter="url(#SvgjsFilter1007)" fill="rgba(51, 121, 194, 0.73)"></circle><circle r="6.675" cx="1438.555" cy="484.595" filter="url(#SvgjsFilter1007)" fill="rgba(51, 121, 194, 0.73)"></circle><circle r="8.47" cx="706.3000000000001" cy="39.62" filter="url(#SvgjsFilter1007)" fill="rgba(51, 121, 194, 0.73)"></circle><circle r="8.9" cx="923.98" cy="552.1" filter="url(#SvgjsFilter1007)" fill="rgba(51, 121, 194, 0.73)"></circle><circle r="7.245" cx="1445.5149999999999" cy="206.435" filter="url(#SvgjsFilter1007)" fill="rgba(51, 121, 194, 0.73)"></circle><circle r="6.19" cx="85.61" cy="386.3" filter="url(#SvgjsFilter1007)" fill="rgba(51, 121, 194, 0.73)"></circle><circle r="4.77" cx="566.28" cy="520.12" filter="url(#SvgjsFilter1007)" fill="rgba(51, 121, 194, 0.73)"></circle><circle r="7.59" cx="1127.1699999999998" cy="430.13" filter="url(#SvgjsFilter1007)" fill="rgba(51, 121, 194, 0.73)"></circle><circle r="5.24" cx="1263.88" cy="60.09" filter="url(#SvgjsFilter1007)" fill="rgba(51, 121, 194, 0.73)"></circle><circle r="6.52" cx="134" cy="224.26000000000002" filter="url(#SvgjsFilter1007)" fill="rgba(51, 121, 194, 0.73)"></circle><circle r="5.67" cx="442.93" cy="156.54999999999998" filter="url(#SvgjsFilter1007)" fill="rgba(51, 121, 194, 0.73)"></circle><circle r="7.145" cx="1227.375" cy="359.075" filter="url(#SvgjsFilter1007)" fill="rgba(51, 121, 194, 0.73)"></circle><circle r="4.765" cx="976.795" cy="43.605000000000004" filter="url(#SvgjsFilter1007)" fill="rgba(51, 121, 194, 0.73)"></circle><circle r="8.355" cx="180.92499999999998" cy="199.505" filter="url(#SvgjsFilter1007)" fill="rgba(51, 121, 194, 0.73)"></circle><path d="M482 408.7L512.3 365.3 526.6 362.4 547.8 387.2 543 401.4 494.9 423.8C494.4 424.2 494.4 424.2 493.9 424.7 492.9 425.5 492.4 426.8 493.1 428.7 494.4 430.1 495.7 430.7 497.6 429.9L539.6 410.2 531.9 431.8 513.5 440.8C513.5 440.8 513 441.2 513 441.2 512 442 511.5 443.3 512.2 445.2 512.6 446.6 514.8 447.2 516.7 446.5L528.9 441.1 523.1 457C522.5 458.3 523.3 460.2 525 461.2S528.7 460.6 529.7 458.9L535.1 443.4 540.9 455.2C541.7 457.1 543.9 457.7 545.8 457 546.8 456.2 547.8 454.4 547.1 452.5L538.1 434.1 546.2 412.1 566 454.1C566.8 456 569 456.6 570.4 456.2 571.8 455 572.9 453.3 572.1 451.4L549.2 403.7 554.4 389.1 585.8 383.5 595.7 395.2 591.9 448C591.8 449.8 593 451.3 594.8 451.4S598.1 450.3 598.2 448.5L601.5 402 616.9 420 615.3 439.9C615.1 441.7 616.4 443.2 618.6 443.8S621.9 442.7 622 440.9L622.7 426.9 633.9 440C635.1 441.5 637.4 441.2 638.9 440 640.3 438.7 640.5 436.9 639.2 435.5L628 422.3 641.6 423.4C643.8 424 645.3 422.8 645 420.5 645.1 418.7 643.9 417.2 642.1 417.1L622.2 415.5 606.9 397.4 653.3 401.6C655.1 401.8 657.1 400.1 657.2 398.3S656.1 395.1 654.3 394.9L601.1 390.6 591.1 378.9 602.2 348.5 616.9 346 660.3 376.3C662.1 377.4 664 376.6 665.4 375.4 666.5 373.6 665.7 371.8 664.5 370.3L626.2 344.1 648.8 340 665.5 351.8C667.2 352.8 669.1 352.1 670.6 350.8 671.1 349.5 670.9 347.2 669.1 346.2L658.4 338.5 675 335.3C676.4 334.9 677.4 333.2 677.6 331.4 676.8 329.5 675.1 328.5 673.7 328.8L657.1 332 664.9 320.4C665.4 319.1 665.1 316.8 663.8 316.2 662.6 314.8 661.2 315.1 659.7 316.3 659.7 316.3 659.2 316.8 659.2 316.8L647.5 333.5 624.9 337.6 651.1 299.3C652.2 297.6 652.3 295.8 650.6 294.7 648.9 293.7 647.5 294 646.5 294.8 646 295.3 646 295.3 646 295.3L615.6 339.6 600.9 342 579.8 317.2 585 303.5 633.1 280.2C634.5 279.8 635.2 277.6 634.8 276.2 634.1 274.3 631.8 273.7 630 274.4L588 294.2 595.6 272.6 614 263.6C615.9 262.9 617 261.1 615.7 259.7 615 257.8 612.7 257.2 611.4 257.5L599.1 263.8 604.9 247.9C605 246.1 604.3 244.2 602.5 243.2 601.6 243.1 600.2 243.4 599.3 244.3 598.8 244.7 598.8 244.7 598.7 245.6L592.9 261.5 586.6 249.2C585.9 247.3 584 247.1 582.7 247.5 582.2 247.9 582.2 247.9 581.7 248.3 580.7 249.1 580.1 250.5 580.5 251.8L589.4 270.3 581.8 291.9 562 249.9C560.8 248.4 559.1 247.4 557.6 248.6 556.7 248.6 556.7 248.6 556.2 249 555.2 249.8 555.1 251.6 555.4 253L578.8 301.2 573.6 314.8 541.8 320.9 532.2 309.7 536.5 256.5C536.7 254.7 535 252.7 533.2 252.6S529.5 254.1 529.3 255.9L526 302.4 511.1 284.8 512.3 264.5C512.4 262.7 511.2 261.2 509.4 261.1 507.6 260.9 506.1 262.2 506 264L504.9 277.5 493.7 264.4C492.8 263.4 490.6 262.8 489.2 264 487.7 265.2 487.5 268 488.3 268.9L499.5 282.1 486 281C485.1 280.9 484.2 280.9 483.7 281.3 482.7 282.1 482.6 283 482.6 283.9 482.4 285.7 483.7 287.2 485.5 287.3L505.7 289.4 520.7 306.9 474.2 302.8C473.3 302.7 472.8 303.1 471.9 303.9 471.4 304.3 470.9 304.8 470.8 305.7 470.7 307.5 472.3 309.4 474.1 309.6L526.9 314.3 536.4 325.5 525.8 355.5 511 358.8 467.2 328.1C465.9 327.5 464.1 327.4 463.1 328.2 462.6 328.6 462.6 328.6 463 329.1 461.6 330.3 461.8 332.6 463.6 333.7L501.9 359.9 478.8 364.4 462 352.6C460.7 352.1 459.3 352.4 458.4 353.2 458.4 353.2 457.9 353.6 457.9 353.6 456.4 354.9 456.7 357.2 458.4 358.2L470 366 453.4 369.2C452.5 369.1 452 369.5 451.6 369.9 450.6 370.8 450 372.1 450.4 372.6 450.7 374.9 452.4 375.9 454.2 376.1L470.8 372.9 463.2 383.6C462.1 385.3 462.4 387.6 464.1 388.7 465.4 389.2 467.7 388.9 468.3 387.6L480.1 370.9 502.7 366.8 476.4 405.1C475.4 406.8 476.1 408.7 477.4 410.2 478.7 410.7 481 410.4 482 408.7ZM550.7 379.7L534.5 360.7 532 357.8 533.2 354.3 541.4 331.3 543.1 327.4 546.8 326.8 570.7 322.3 574.4 321.7 576.9 324.6 593.1 343.7 595.6 346.6 594.4 350.1 586.2 373.1 585 376.6 580.8 377.6 556.8 382.1 553.1 382.7 550.7 379.7Z" fill="rgba(51, 121, 194, 0.73)"></path><path d="M701.7 504.9L681.5 520.6 672.3 519.3 679.1 514C680 513.6 679.9 512.6 679.5 511.7 679 511.3 677.9 511 677.4 511.6L667.9 518.7 658.8 517.6 664.4 510.4 676.3 508.9C676.3 508.9 676.6 508.8 676.6 508.8 677.2 508.5 677.5 507.7 677.6 507 677.2 506.1 676.7 505.6 675.7 505.7L667.1 506.9 672.8 499.6 698 496.1C698 496.1 698.4 496.2 698.4 496.2 699 496 699.3 495.1 699.4 494.4 699.3 493.4 698.3 492.8 697.5 493.1L675.5 496.1 682.1 487.1 691.9 485.7C691.9 485.7 691.9 485.7 692.2 485.6 692.8 485.4 693.3 484.8 693.3 484.1 693 483.2 692.3 482.5 691.3 482.5L684.8 483.5 689.7 477C690.4 476.3 690.1 475.4 689.5 475 688.9 474.2 687.8 474.3 687.2 475.2L682.2 481.5 681.6 475.1C681.2 474.3 680.6 473.5 679.7 473.9 678.7 473.9 678.2 474.5 678.3 475.5L679.6 485.3 672.9 494 669.8 471.8C669.8 471 668.9 470.4 667.9 470.5 667.3 470.7 666.5 471.4 666.6 472.4L670.2 497.6 664.5 504.8 663.4 496.3C663.3 495.3 662.5 494.9 661.5 495 660.8 494.9 660.1 495.9 660.1 496.6L661.8 508.4 656.3 515.9 652.7 507.3 657.2 496.4C657.6 495.6 657.2 494.7 656.3 494.4 655.8 493.9 654.6 494.4 654.3 495.2L651 503.2 647.4 494.6 657.4 471C657.7 470.2 657.3 469.3 656.5 469 655.7 468.6 654.8 469 654.4 469.8L645.7 490.5 641.5 480.4 645.3 471.2C645.6 470.4 645.3 469.5 644.4 469.2 643.6 468.8 642.7 469.2 642.4 470L639.7 476 636.6 468.6C636.2 467.7 635.4 467.4 634.5 467.8 633.6 468.1 633.3 469 633.6 469.9L636.7 477.2 630.9 474.8C630 474.5 629.1 474.9 628.8 475.7S628.8 477.4 629.7 477.8L638.4 481.4 642.8 491.7 622.2 483.3C621.4 482.9 620.5 483.3 620.2 484.1 619.8 485 620.2 485.9 621 486.2L644.5 495.8 648.1 504.4 640.1 501.1C639.3 500.8 638.4 501.2 638 502 637.7 502.8 638.1 503.7 638.9 504.1L649.8 508.5 653.2 516.8 644.4 515.6 637 506.2C636.5 505.8 635.4 505.5 634.9 506.1 634.1 506.8 634.1 507.5 634.5 508.4L639.7 515.2 630.9 514 615.2 493.8C614.6 493.1 613.8 493 613 493.4 612.2 494.1 612.3 495.1 612.5 495.7L626.2 513.5 615.1 511.9 609.2 504.3C608.8 503.4 607.8 503.5 606.9 503.9 606.5 504.4 606.2 505.6 606.9 506.3L610.7 511.3 602.7 510.5C601.9 510.1 601.1 510.8 600.9 511.9 600.9 512.7 601.5 513.4 602.3 513.5L610.4 514.6 605.1 518.5C604.3 519.2 604.4 520.2 604.9 520.7 605.3 521.6 606 521.6 606.6 521.4 606.9 521.2 606.9 521.2 607.2 521.1L614.8 515.2 625.8 516.8 608.3 530.4C607.4 530.7 607.5 531.8 607.8 532.6 608.4 533.1 609.1 533.2 609.7 532.9 610 532.8 610 532.8 610 532.8L630.5 517.3 639.4 518.4 632.5 523.7C631.8 524.4 631.7 525.1 632.1 526 632.6 526.4 633.5 526.8 634.1 526.5 634.4 526.4 634.4 526.4 634.7 526.3L644.1 518.9 652.9 520.1 647.5 527.2 635.8 529C634.8 529 634.1 530 634.1 530.7 634.4 531.6 635.1 532.4 636 532L644.5 530.8 639.3 538.2 613.7 541.6C613 541.6 612.3 542.6 612.3 543.3 612.6 544.2 613.3 544.9 614.3 544.8L636.3 541.9 629.6 550.6 620 551.8C619 551.9 618.4 552.9 618.7 553.8 618.7 554.5 619.3 555.2 620.4 555.2L626.9 554.2 622 560.7C621.5 561.3 621.6 562.3 622.3 563 622.7 563.2 623.4 563.3 624 563 624 563 624.3 562.9 624.6 562.8L629.5 556.2 630.5 562.7C630.4 563.4 631.4 564.1 632.1 564.1 632.4 564 632.4 564 632.4 564 633.3 563.6 633.6 562.8 633.4 562.2L632.1 552.7 638.8 543.6 641.9 565.9C642.2 566.8 642.8 567.3 643.8 567.2 643.8 567.2 644.1 567.1 644.1 567.1 644.7 566.9 645.1 566.3 645.1 565.3L641.8 540 647.1 532.9 648.3 541.4C648.6 542.3 649.3 543.1 650.2 542.7 650.3 543 650.6 542.9 650.6 542.9 651.2 542.6 651.5 541.8 651.6 541.1L649.8 529.3 655.5 522.1 658.9 530.4 654.4 541.3C654.1 542.1 654.6 543.3 655.4 543.6 656.1 543.7 657 543.3 657.5 542.8L660.6 534.5 664.2 543.1 654.6 566.5C654.2 567.4 654.6 568.3 655.4 568.6 656.3 568.9 657.2 568.6 657.5 567.7L665.9 547.2 670.3 557.6 666.6 566.3C666.3 567.2 666.7 568.1 667.5 568.4S669.2 568.4 669.6 567.6L672 561.7 675.1 569.1C675.4 570 676.3 570.3 677.2 569.9 678 569.6 678.4 568.7 678 567.8L674.9 560.5 681.1 562.7C681.5 562.9 681.9 563.1 682.2 563 682.5 562.8 683 562.3 683.2 561.9 683.5 561 683.1 560.2 682.3 559.8L673.2 556.3 668.9 546 689.7 554.3C690.1 554.5 690.5 554.6 690.8 554.5 691.1 554.4 691.6 553.9 691.8 553.4 692.1 552.6 691.7 551.7 690.9 551.4L667.2 541.9 663.6 533.3 671.7 536.9C672.1 537 672.7 536.8 673 536.7 673.3 536.5 673.6 536.4 673.7 536 674.1 535.2 673.6 534 672.9 533.9L661.9 529.2 658.4 520.9 667.5 521.9 674.6 531.5C675.2 531.9 676 532.3 676.6 532 676.9 531.9 676.9 531.9 676.8 531.6 677.6 531.2 677.9 530.1 677.2 529.3L671.9 522.5 681 523.6 696.6 544.2C697.1 544.6 697.8 544.7 698.4 544.4 698.7 544.3 698.7 544.3 698.7 544.3 699.5 543.6 699.8 542.8 699.1 542L685.4 524.2 696.5 525.8 702.5 533.4C703.1 534.1 703.8 534.2 704.4 533.9 704.4 533.9 704.7 533.8 704.7 533.8 705.5 533.1 705.4 532.1 705.2 531.5L700.9 526.4 709 527.5C709.3 527.4 709.6 527.3 709.9 527.1 710.2 527 710.7 526.5 710.8 526 710.8 525 710.4 524.2 709.4 524.2L701.3 523.1 706.6 519.2C707.3 518.5 707.3 517.5 707 516.9 706.4 516.1 705.3 516.2 704.5 516.6L696.9 522.5 685.9 521.2 703.5 507.6C704.3 507 704.5 505.8 703.9 505.4 703.3 504.6 702.4 504.2 701.7 504.9Z" fill="rgba(51, 121, 194, 0.73)"></path><path d="M400.9 150.5L369.4 139.9 356.5 113.3 386 115.4 407.6 140.6C407.6 140.6 407.9 140.8 407.9 140.8 408.6 141.2 409.7 141 410.5 140.6 411.5 139.8 411.5 138.4 410.5 137.7L391.5 115.7 405.8 116.7 414.3 126.3C414.3 126.3 414.6 126.5 414.6 126.5 415.3 127 416.4 126.7 417.2 126.3 418.2 125.5 418.2 124.1 417.2 123.4L411.6 116.7 422.1 117.6C423 117.7 424.2 116.6 424.4 115.7 424.7 114.5 423.4 113.6 422.5 113.5L412 112.6 418.6 107C419.6 106.2 419.7 104.8 418.7 104.1 417.9 103.1 416.5 103.1 415.8 104.1L406.2 112.6 392.1 111.3 414.1 92.3C415.1 91.6 415.1 90.1 414.1 89.4 413.3 88.4 411.9 88.4 411.2 89.4L386 111 356.5 109 373.3 84.1 406.1 77.7C407.2 77.5 407.8 76.5 407.6 75.4 407.4 74.3 406.4 73.6 405.3 73.9L376.4 79.5 384.5 67.5 396.7 65.2C397.8 64.9 398.5 63.9 398.3 62.8 398.1 61.7 397.1 61.1 396 61.3L387.6 62.9 393.9 53.6C394.9 52.8 394.3 51.5 393.4 50.8 392.4 50.2 391.2 50.4 390.6 51.4L384.8 60 383.1 51.7C382.9 50.5 381.9 49.9 380.8 50.1S379 51.3 379.3 52.4L381.6 64.6 373.6 76.6 368 47.7C367.7 46.6 366.8 45.9 365.6 46.1 364.5 46.3 363.9 47.3 364.1 48.4L370.4 81.2 353.9 105.7 340.9 79.1 351.4 48.6C351.8 47.4 351 46.4 350 45.7 348.8 45.3 347.8 46.1 347.1 47.1L337.7 74.6 331.5 61.7 335.8 49.6C336.1 48.4 335.3 47.4 334.4 46.7 333.1 46.4 332.1 47.1 331.7 47.8L329 56.1 324.3 46.6C323.8 45.9 322.5 45 321.5 45.7 320.5 46.5 319.8 47.5 320.6 48.5L325.3 58 317 55.3C315.8 54.9 314.8 55.7 314.3 56.3 314.2 57.2 314.4 58.3 315.1 58.8 315.1 58.8 315.4 59 315.4 59L327.5 63.3 333.7 76.2 306.3 66.8C305.1 66.5 304.1 67.3 303.6 67.9 303.5 68.8 303.7 69.9 304.4 70.4 304.4 70.4 304.7 70.6 304.7 70.6L336.1 81.2 349.1 107.8 319.6 105.7 298 80.5C297.2 79.5 295.8 79.5 295.1 80.5 294.1 81.3 294.1 82.7 295.1 83.4L314 105.4 299.7 104.4 291.2 94.8C290.5 93.8 289 93.8 288.4 94.8 287.4 95.6 287.4 97 288.3 97.7L294 104.4 283.4 103.5C282.5 103.4 281.3 104.5 281.2 105.4 281.1 106.3 281.5 107.1 282.2 107.5 282.5 107.7 282.8 108 283.4 107.9L293.9 108.7 287.2 114.3C286.2 115.1 286.2 116.5 287.2 117.2 287.2 117.2 287.6 117.4 287.6 117.4 288.2 117.9 289.3 117.7 290.1 117.2L299.7 108.7 314 109.7 292 128.7C291 129.4 291 130.9 292 131.5 292 131.5 292.4 131.8 292.4 131.8 293 132.2 294.1 132 294.9 131.6L320.1 110 349.6 112 333 136.6 300.3 142.9C299.2 143.1 298.5 144.1 298.7 145.2 298.9 146.3 299.9 147 301 146.8L329.7 141.5 321.6 153.5 309.4 155.8C308.3 156 307.6 157 307.8 158.2S309.1 159.9 310.2 159.7L318.5 158.1 312.7 166.7C312 167.7 312.2 168.8 313.2 169.5 314.2 170.2 315.3 170 316 169L321.8 160.3 323.4 168.7C323.5 169.2 323.6 169.8 324.3 170.2S325.5 170.6 326.1 170.5C327.2 170.3 327.9 169.3 327.6 168.1L325.3 155.9 333.3 144 338.9 172.9C339 173.4 339.1 174 339.8 174.4 340.1 174.7 341 174.8 341.6 174.7 342.7 174.4 343.4 173.5 343.2 172.3L336.8 139.6 353.4 115 366.3 141.6 355.7 173.1C355.6 174 355.8 175.1 356.4 175.5 356.4 175.5 356.8 175.8 356.8 175.8 358 176.1 359 175.3 359.4 174.7L368.8 147.2 375.1 160.1 370.8 172.2C370.7 173.1 370.9 174.2 371.5 174.6 371.5 174.6 371.9 174.8 371.9 174.8 373.1 175.2 374.1 174.4 374.5 173.7L377.3 165.4 382 174.9C382.3 175.1 382.4 175.7 382.7 175.9 383.4 176.4 384.3 176.5 385.1 176 386.1 175.3 386.7 174.3 386 173.3L381.3 163.8 389.6 166.5C390.8 166.9 391.8 166.1 392.2 165.4 392.6 164.2 391.8 163.2 391.1 162.8L379.1 158.5 372.8 145.6 400.3 154.9C401.5 155.3 402.5 154.5 402.9 153.8 402.6 152.2 402.1 150.8 400.9 150.5Z" fill="rgba(51, 121, 194, 0.73)"></path><path d="M1118.8 161L1115.7 213.8 1105 223.8 1074 213.6 1070.7 199.1 1100 154.8C1100.2 154.2 1100.2 154.2 1100.4 153.6 1100.8 152.4 1100.6 150.9 1098.9 149.7 1097.1 149.1 1095.7 149.3 1094.5 151L1069 189.8 1064.2 167.3 1075.3 150.1C1075.3 150.1 1075.5 149.5 1075.5 149.5 1075.9 148.2 1075.6 146.8 1074 145.6 1073 144.6 1070.8 145.2 1069.6 146.9L1061.9 157.8 1058.6 141.3C1058.4 139.8 1056.8 138.6 1054.8 138.7S1051.9 141.1 1051.9 143.1L1055.5 159.1 1044.3 152.1C1042.7 150.9 1040.5 151.5 1039.3 153.1 1038.9 154.3 1038.9 156.4 1040.5 157.6L1057.8 168.6 1062.3 191.6 1023.5 166.2C1021.9 164.9 1019.7 165.6 1018.7 166.6 1018.1 168.4 1018.1 170.4 1019.7 171.6L1064.2 200.3 1067.3 215.5 1043.6 236.7 1029 231.9 1004.6 184.9C1003.8 183.3 1002 182.7 1000.4 183.5S998.2 186.1 999 187.7L1020.5 229.1 997.9 221.8 988.9 204C988.1 202.4 986.3 201.8 984.1 202.4S981.9 205 982.7 206.7L989.4 219 973 213.6C971.2 213 969.4 214.4 968.8 216.3 968.2 218.1 969 219.7 970.8 220.3L987.2 225.7 975.1 231.8C972.9 232.4 972.3 234.2 973.7 236.1 974.6 237.7 976.4 238.3 978 237.4L995.8 228.4 1018.3 235.8 976.5 256.5C974.9 257.3 974.1 259.7 974.9 261.3S977.5 263.6 979.2 262.7L1026.8 238.6 1041.4 243.4 1047.8 275.1 1036.6 284.9 983.7 281.7C981.7 281.8 980.5 283.4 979.9 285.2 979.9 287.2 981.5 288.4 983.4 289L1029.7 291.4 1012.6 306.7 992.2 305.4C990.1 305.4 988.9 307 988.3 308.8 988.5 310.2 990 312.1 992 312.1L1005.1 313 992.7 324.4C991.7 325.4 991.7 327.4 992.5 329 994.1 330.3 996.1 330.2 997.1 329.2L1009.6 317.8 1009.1 331.8C1009.3 333.2 1010.7 335 1012.2 334.8 1014 335.4 1015 334.4 1015.6 332.6 1015.6 332.6 1015.8 332 1015.8 332L1017.1 311.5 1034.2 296.2 1031.8 342.6C1031.8 344.6 1032.7 346.2 1034.7 346.2 1036.7 346.2 1037.7 345.2 1038.1 344 1038.3 343.4 1038.3 343.4 1038.3 343.4L1041 289.7 1052.3 279.9 1083.3 290.1 1086.1 304.4 1057.2 349.5C1056.2 350.5 1056.8 352.8 1057.8 353.8 1059.4 355 1061.6 354.4 1062.9 352.7L1088.3 313.9 1093.1 336.4 1082.1 353.6C1080.9 355.3 1080.9 357.3 1082.7 357.9 1084.3 359.1 1086.6 358.5 1087.6 357.5L1094.8 345.7 1098.1 362.2C1098.9 363.9 1100.6 365.1 1102.6 365.1 1103.4 364.6 1104.4 363.6 1104.8 362.4 1105 361.8 1105 361.8 1104.6 361L1101.3 344.4 1113 351.6C1114.7 352.8 1116.3 352 1117.3 351 1117.5 350.4 1117.5 350.4 1117.7 349.8 1118.1 348.6 1117.9 347.2 1116.9 346.2L1099.6 335.1 1094.8 312.7 1133.6 338.2C1135.4 338.8 1137.5 338.8 1138 336.9 1138.9 336.5 1138.9 336.5 1139.1 335.9 1139.5 334.7 1138.6 333.1 1137.6 332.1L1092.5 303.2 1089.8 288.8 1113.8 267 1127.8 271.6 1151.9 319.2C1152.7 320.9 1155.2 321.7 1156.8 320.8S1159.2 317.6 1158.4 316L1136.9 274.6 1158.8 281.8 1168.4 299.7C1169.2 301.3 1171 301.9 1172.7 301.1 1174.3 300.3 1174.9 298.5 1174 296.9L1167.9 284.7 1184.3 290.1C1185.5 290.5 1187.8 289.9 1188.4 288.1 1189 286.2 1187.7 283.8 1186.5 283.4L1170.1 278.1 1182.2 271.9C1183 271.5 1183.8 271.1 1184 270.5 1184.4 269.3 1184 268.5 1183.6 267.7 1182.8 266 1181 265.4 1179.3 266.3L1161 275.1 1139.1 267.9 1180.9 247.2C1181.7 246.8 1181.9 246.2 1182.3 245 1182.5 244.4 1182.7 243.8 1182.2 243 1181.4 241.4 1179 240.6 1177.4 241.4L1129.9 264.9 1116 260.3 1109.3 229.2 1120.2 218.6 1173.6 222C1175 221.8 1176.7 220.9 1177.1 219.7 1177.3 219.1 1177.3 219.1 1176.6 218.9 1177.2 217.1 1175.8 215.3 1173.8 215.3L1127.4 212.9 1144.7 197 1165.2 198.3C1166.6 198.1 1167.6 197.1 1168 195.9 1168 195.9 1168.2 195.3 1168.2 195.3 1168.8 193.5 1167.4 191.6 1165.4 191.7L1151.4 191.1 1163.9 179.7C1164.7 179.3 1164.9 178.7 1165.1 178.1 1165.5 176.9 1165.3 175.5 1164.7 175.3 1163.2 173.5 1161.2 173.5 1159.6 174.3L1147.1 185.7 1148 172.5C1148 170.5 1146.6 168.7 1144.6 168.7 1143.2 168.9 1141.4 170.3 1141.6 171.8L1140.3 192.2 1123.1 207.5 1125.5 161.1C1125.5 159.1 1123.9 157.9 1122.1 157.3 1120.6 157.5 1118.8 158.9 1118.8 161ZM1075.5 221.5L1099.2 229.3 1102.8 230.5 1103.7 234.1 1108.7 258 1109.3 262.2 1106.5 264.7 1088.3 280.9 1085.5 283.4 1081.9 282.2 1058.2 274.4 1054.5 273.2 1053.7 269.6 1048.7 245.8 1047.9 242.1 1050.9 239.1 1069 222.8 1071.8 220.3 1075.5 221.5Z" fill="rgba(51, 121, 194, 0.73)"></path><path d="M1209.9 313.2L1217.6 337.6 1213.1 345.7 1210.6 337.5C1210.5 336.6 1209.5 336.3 1208.6 336.3 1208 336.7 1207.4 337.6 1207.7 338.3L1211 349.7 1206.9 357.8 1202.1 350 1204.8 338.4C1204.8 338.4 1204.8 338.1 1204.8 338.1 1204.8 337.4 1204.1 336.8 1203.5 336.5 1202.5 336.6 1201.9 336.9 1201.6 337.9L1199.7 346.3 1194.9 338.5 1200.3 313.6C1200.3 313.6 1200.6 313.3 1200.6 313.3 1200.6 312.6 1199.9 312 1199.3 311.7 1198.3 311.4 1197.4 312.1 1197.4 313.1L1192.5 334.7 1186.4 325.3 1188.6 315.7C1188.6 315.7 1188.6 315.7 1188.5 315.3 1188.5 314.7 1188.2 314.1 1187.5 313.8 1186.6 313.8 1185.6 314.2 1185.3 315.1L1184 321.6 1179.6 314.7C1179.2 313.8 1178.2 313.8 1177.6 314.2 1176.7 314.5 1176.4 315.5 1177.1 316.4L1181.2 323.3 1175 321.6C1174.1 321.7 1173.1 322 1173.2 323 1172.9 324 1173.2 324.6 1174.2 324.9L1183.9 327 1189.7 336.4 1167.7 331.5C1167.1 331.2 1166.1 331.9 1165.9 332.9 1165.9 333.5 1166.2 334.5 1167.2 334.7L1192.1 340.2 1196.9 348 1188.5 346.1C1187.5 345.8 1186.9 346.5 1186.6 347.4 1186.3 348.1 1187 349 1187.6 349.3L1199.3 351.7 1204.4 359.5 1195.1 359.9 1186.5 351.9C1185.8 351.3 1184.8 351.3 1184.2 352 1183.6 352.4 1183.7 353.6 1184.3 354.2L1190.6 360.1 1181.4 360.5 1162.7 342.9C1162.1 342.3 1161.1 342.4 1160.5 343 1159.9 343.7 1159.9 344.6 1160.6 345.3L1176.9 360.6 1166 361.1 1158.7 354.3C1158 353.7 1157.1 353.7 1156.5 354.4 1155.8 355.1 1155.9 356 1156.5 356.6L1161.2 361.2 1153.2 361.6C1152.3 361.6 1151.6 362.3 1151.7 363.2 1151.7 364.2 1152.4 364.8 1153.3 364.8L1161.3 364.4 1157 369.1C1156.4 369.8 1156.5 370.7 1157.1 371.3S1158.8 371.9 1159.4 371.2L1165.8 364.3 1177 363.8 1162 380.1C1161.3 380.8 1161.4 381.7 1162 382.3 1162.7 383 1163.7 382.9 1164.3 382.3L1181.5 363.6 1190.8 363.3 1184.9 369.6C1184.3 370.3 1184.3 371.2 1185 371.8 1185.7 372.5 1186.6 372.4 1187.2 371.7L1195.2 363.1 1204.2 362.8 1200 370.6 1188.6 374.3C1188 374.6 1187.4 375.6 1187.7 376.2 1188.1 377.2 1188.8 377.5 1189.7 377.4L1197.9 374.8 1193.8 382.7 1169.4 390.4C1168.5 390.7 1168.2 391.4 1168.2 392.4 1168.6 393.3 1169.5 393.6 1170.2 393.6L1191.7 386.9 1186.3 396.8 1177.1 399.7C1176.2 399.7 1175.9 400.7 1175.9 401.7 1176.3 402.3 1177.3 402.9 1178.2 402.5L1184.2 400.7 1180.7 407.9C1180.1 408.5 1180.4 409.5 1181.4 410.1 1182 410.4 1183 410 1183.3 409.4L1187.2 402.2 1189 408.5C1189.4 409.5 1190.4 409.7 1191 409.4 1191.9 409.4 1192.2 408.7 1192.2 408.1 1192.2 407.7 1192.2 407.7 1192.2 407.4L1189.3 398.2 1194.6 388.4 1201.2 409.6C1201.3 410.6 1202.2 410.9 1203.2 410.8 1203.8 410.5 1204.1 409.8 1204.1 409.2 1204.1 408.9 1204.1 408.9 1204.1 408.9L1196.7 384.2 1200.9 376.3 1203.4 384.6C1203.8 385.5 1204.5 385.8 1205.4 385.8 1206 385.4 1206.7 384.8 1206.6 384.1 1206.6 383.8 1206.6 383.8 1206.6 383.5L1203 372.1 1207.1 364.2 1211.9 371.7 1209.5 383.4C1209.2 384.3 1209.9 385.3 1210.5 385.6 1211.5 385.5 1212.4 385.2 1212.4 384.2L1214.3 375.8 1219.4 383.3 1213.7 408.5C1213.4 409.1 1214.1 410.1 1214.7 410.4 1215.7 410.3 1216.6 410 1216.9 409L1221.8 387.4 1227.6 396.7 1225.4 406.1C1225.2 407.1 1225.8 408 1226.8 408 1227.4 408.3 1228.4 407.9 1228.7 406.9L1230 400.5 1234.5 407.4C1234.8 408 1235.8 408.3 1236.7 407.9 1237 407.6 1237.3 406.9 1237.3 406.3 1237.3 406.3 1237.3 406 1237.3 405.6L1232.8 398.8 1239.3 400.1C1239.9 400.4 1240.9 399.7 1241.2 399.1 1241.2 398.8 1241.2 398.8 1241.2 398.8 1241.1 397.8 1240.5 397.2 1239.8 397.2L1230.4 395 1224.3 385.7 1246.3 390.6C1247.2 390.5 1247.9 390.2 1248.1 389.2 1248.1 389.2 1248.1 388.9 1248.1 388.9 1248.1 388.2 1247.8 387.6 1246.8 387.3L1221.9 381.6 1217.1 374.1 1225.5 376C1226.5 376 1227.4 375.6 1227.4 374.6 1227.7 374.6 1227.7 374.3 1227.7 374.3 1227.7 373.7 1227 373.1 1226.4 372.8L1214.7 370.3 1209.9 362.5 1218.9 362.2 1227.5 370.2C1228.2 370.8 1229.5 370.7 1230.1 370.1 1230.4 369.4 1230.4 368.4 1230 367.8L1223.4 362 1232.6 361.6 1251.3 378.8C1251.9 379.4 1252.9 379.4 1253.5 378.7 1254.1 378.1 1254.1 377.1 1253.4 376.5L1237.1 361.5 1248.3 361 1255.3 367.5C1256 368.1 1256.9 368 1257.5 367.4S1258.1 365.7 1257.4 365.1L1252.8 360.8 1260.8 360.5C1261.7 360.5 1262.4 359.8 1262.3 358.9 1262.3 357.9 1261.6 357.3 1260.7 357.3L1252.7 357.6 1257 352.7C1257.3 352.3 1257.6 352 1257.6 351.7 1257.5 351.4 1257.2 350.7 1256.9 350.4 1256.2 349.8 1255.2 349.8 1254.6 350.5L1248.2 357.8 1237 358.3 1252 341.6C1252.3 341.3 1252.6 341 1252.6 340.7 1252.6 340.3 1252.3 339.7 1251.9 339.4 1251.3 338.8 1250.3 338.8 1249.7 339.5L1232.5 358.4 1223.2 358.8 1229.4 352.5C1229.7 352.1 1229.7 351.5 1229.7 351.2 1229.7 350.9 1229.6 350.5 1229.3 350.2 1228.6 349.6 1227.4 349.7 1227.1 350.3L1218.8 359 1209.8 359.3 1214 351.2 1225.4 347.8C1226 347.5 1226.6 346.8 1226.6 346.2 1226.6 345.9 1226.6 345.9 1226.3 345.9 1226.2 344.9 1225.2 344.3 1224.3 344.7L1216.1 347.2 1220.2 339.1 1244.9 331.7C1245.5 331.3 1245.8 330.7 1245.8 330 1245.8 329.7 1245.8 329.7 1245.8 329.7 1245.4 328.8 1244.8 328.2 1243.8 328.5L1222.3 335.1 1227.7 325.3 1236.9 322.4C1237.8 322 1238.1 321.4 1238.1 320.7 1238.1 320.7 1238.1 320.4 1238.1 320.4 1237.7 319.5 1236.7 319.2 1236.1 319.2L1229.8 321.4 1233.7 314.2C1233.6 313.9 1233.6 313.6 1233.6 313.2 1233.6 312.9 1233.3 312.3 1232.9 312 1232 311.7 1231 311.7 1230.7 312.7L1226.8 319.9 1225 313.6C1224.6 312.6 1223.7 312.3 1223 312.4 1222.1 312.7 1221.8 313.7 1221.8 314.7L1224.7 323.8 1219.7 333.6 1213.1 312.4C1212.7 311.5 1211.7 310.9 1211.1 311.2 1210.2 311.6 1209.6 312.3 1209.9 313.2Z" fill="rgba(51, 121, 194, 0.73)"></path><path d="M156.5 570.6L146.8 540.2 152.4 529.9 155.6 540.2C155.7 541.4 156.9 541.8 158.1 541.7 158.9 541.3 159.6 540.1 159.2 539.3L155 525 160.2 514.8 166.2 524.6 162.8 539.1C162.8 539.1 162.8 539.5 162.8 539.5 162.8 540.3 163.7 541.1 164.5 541.5 165.7 541.4 166.5 541 166.8 539.8L169.2 529.3 175.2 539 168.5 570.1C168.5 570.1 168.1 570.5 168.1 570.5 168.1 571.3 169 572.1 169.8 572.5 171 572.8 172.2 572 172.1 570.8L178.2 543.7 185.9 555.4 183.2 567.5C183.2 567.5 183.2 567.5 183.2 567.9 183.2 568.7 183.7 569.5 184.5 569.9 185.7 569.8 186.9 569.4 187.2 568.1L188.9 560.1 194.4 568.6C194.9 569.8 196.1 569.8 196.9 569.3 198 568.9 198.4 567.7 197.5 566.5L192.4 557.9 200.1 560C201.3 559.9 202.5 559.5 202.4 558.3 202.8 557.1 202.3 556.3 201.1 555.9L189 553.2 181.7 541.5 209.2 547.6C210 548 211.2 547.1 211.5 545.9 211.5 545.1 211 543.9 209.8 543.6L178.7 536.9 172.7 527.1 183.2 529.5C184.4 529.8 185.2 529 185.5 527.8 185.9 527 185 525.8 184.2 525.4L169.7 522.4 163.3 512.7 174.9 512.2 185.7 522.2C186.5 522.9 187.7 522.9 188.5 522 189.3 521.6 189.2 520 188.4 519.2L180.5 512 192.1 511.5 215.4 533.3C216.2 534.1 217.4 534.1 218.2 533.2 219 532.4 218.9 531.2 218.1 530.4L197.7 511.3 211.2 510.7 220.4 519.1C221.2 519.9 222.4 519.8 223.2 519 224 518.2 223.9 517 223.1 516.2L217.2 510.4 227.2 510C228.4 510 229.2 509.1 229.1 507.9 229.1 506.7 228.3 506 227.1 506L217.1 506.4 222.4 500.6C223.2 499.8 223.2 498.6 222.3 497.8S220.3 497.1 219.5 497.9L211.5 506.7 197.5 507.3 216.3 486.9C217 486 217 484.8 216.1 484.1 215.3 483.3 214.1 483.3 213.3 484.2L191.9 507.5 180.3 508 187.6 500.1C188.3 499.2 188.3 498 187.5 497.3 186.6 496.5 185.4 496.5 184.7 497.4L174.7 508.2 163.5 508.7 168.7 498.8 182.9 494.3C183.7 493.8 184.5 492.6 184 491.8 183.6 490.6 182.8 490.3 181.6 490.3L171.3 493.5 176.5 483.7 206.9 474C208.1 473.6 208.5 472.8 208.4 471.6 208 470.4 206.8 470 206 470.1L179.1 478.4 185.8 466.1 197.2 462.4C198.4 462.4 198.8 461.2 198.7 460 198.3 459.2 197.1 458.4 195.9 458.9L188.4 461.2 192.8 452.2C193.6 451.4 193.1 450.2 191.9 449.4 191.1 449.1 189.9 449.5 189.5 450.3L184.7 459.3 182.4 451.4C181.9 450.3 180.7 449.9 179.9 450.3 178.7 450.4 178.3 451.2 178.4 452 178.4 452.4 178.4 452.4 178.4 452.8L182.1 464.3 175.4 476.5 167.1 450.1C167 448.9 165.8 448.5 164.6 448.6 163.8 449 163.5 449.8 163.5 450.6 163.5 451 163.5 451 163.5 451L172.8 481.9 167.6 491.7 164.4 481.4C163.9 480.2 163.1 479.9 161.9 479.9 161.1 480.3 160.4 481.2 160.4 482 160.4 482.4 160.4 482.4 160.4 482.8L165 497 159.8 506.8 153.8 497.5 156.8 482.9C157.2 481.7 156.3 480.5 155.5 480.2 154.3 480.2 153.1 480.7 153.2 481.9L150.8 492.4 144.4 483 151.5 451.5C151.9 450.7 151.1 449.5 150.2 449.2 149 449.2 147.9 449.7 147.5 450.9L141.4 478 134.1 466.3 136.8 454.5C137.2 453.3 136.3 452.1 135.1 452.2 134.3 451.8 133.2 452.3 132.8 453.5L131.1 461.6 125.6 453C125.1 452.2 123.9 451.9 122.7 452.3 122.4 452.7 122 453.5 122 454.3 122 454.3 122 454.7 122.1 455.1L127.6 463.7 119.5 462.1C118.7 461.7 117.6 462.5 117.2 463.4 117.2 463.8 117.2 463.8 117.2 463.8 117.3 465 118.1 465.7 118.9 465.7L130.6 468.4 138.3 480.1 110.8 474C109.6 474.1 108.9 474.5 108.5 475.7 108.5 475.7 108.5 476.1 108.5 476.1 108.6 476.9 109 477.7 110.2 478.1L141.3 485.2 147.3 494.5 136.8 492.2C135.6 492.2 134.4 492.7 134.5 493.9 134.1 493.9 134.1 494.3 134.1 494.3 134.1 495.1 135 495.8 135.8 496.2L150.3 499.2 156.3 509 145.1 509.4 134.3 499.5C133.5 498.7 131.9 498.8 131.1 499.6 130.7 500.4 130.8 501.6 131.2 502.4L139.5 509.7 127.9 510.1 104.6 488.7C103.8 487.9 102.6 488 101.8 488.8 101.1 489.6 101.1 490.8 102 491.6L122.4 510.4 108.4 511 99.6 502.9C98.8 502.2 97.6 502.2 96.8 503S96.1 505.1 96.9 505.8L102.8 511.2 92.8 511.6C91.6 511.7 90.8 512.5 90.9 513.7 90.9 514.9 91.7 515.7 92.9 515.6L102.9 515.2 97.6 521.4C97.2 521.8 96.8 522.3 96.8 522.7 96.9 523 97.3 523.8 97.7 524.2 98.5 525 99.7 524.9 100.5 524.1L108.5 515 122.5 514.4 103.8 535.2C103.4 535.6 103 536 103 536.4 103 536.8 103.5 537.6 103.9 538 104.7 538.7 105.9 538.7 106.7 537.9L128.1 514.1 139.7 513.7 132 521.6C131.6 522 131.7 522.8 131.7 523.2 131.7 523.6 131.7 524 132.1 524.4 133 525.2 134.6 525.1 134.9 524.3L145.3 513.4 156.5 513 151.3 523.2 137.1 527.4C136.3 527.8 135.5 528.6 135.6 529.4 135.6 529.8 135.6 529.8 136 529.8 136 531 137.3 531.8 138.4 531.3L148.7 528.1 143.5 538.3 112.7 547.6C111.9 548 111.5 548.9 111.6 549.7 111.6 550.1 111.6 550.1 111.6 550.1 112 551.2 112.9 552 114.1 551.6L140.9 543.2 134.2 555.5 122.8 559.2C121.6 559.7 121.2 560.5 121.3 561.3 121.3 561.3 121.3 561.7 121.3 561.7 121.7 562.9 122.9 563.2 123.7 563.2L131.6 560.4 126.8 569.4C126.8 569.8 126.8 570.2 126.9 570.6 126.9 571 127.3 571.8 127.7 572.2 128.9 572.6 130.1 572.5 130.5 571.3L135.3 562.3 137.7 570.2C138.1 571.4 139.3 571.7 140.1 571.7 141.3 571.2 141.6 570 141.6 568.8L137.9 557.4 144.2 545.1 152.5 571.6C153 572.8 154.2 573.5 155 573.1 156.2 572.6 156.9 571.8 156.5 570.6Z" fill="rgba(51, 121, 194, 0.73)"></path><path d="M1285.3 198.9L1282 189.4 1288.6 190.4C1289.3 190.5 1290.2 190 1290.6 189.1 1290.5 188.2 1289.9 187.3 1289.2 187.1L1280.5 185.7 1277.4 176.8 1295.2 180C1296.3 180.1 1297.2 179.6 1297.1 178.7 1297.5 177.8 1296.9 176.9 1295.8 176.8L1276.2 173.3 1273.2 165.4 1285.7 150.4 1293.1 151.6 1300.1 171.6C1300.4 171.8 1300.6 172 1300.8 172.2 1301.1 172.4 1301.8 172.6 1302.2 172.6 1303.3 172.2 1303.7 171.3 1303.2 170.4L1296.8 152.1 1305.8 153.8 1309.3 163C1309.1 163.3 1309.4 163.5 1309.6 163.7 1310.1 164.1 1310.8 164.3 1311.5 164 1312.1 163.7 1312.5 162.8 1312.4 161.9L1309.5 154.4 1320.8 156.3C1321.5 156.5 1322.3 156 1322.7 155 1322.6 154.1 1322.1 153.3 1321.4 153.1L1310.8 151.3 1315.1 146.2C1315.7 145.4 1315.4 144.3 1314.9 143.9 1314.1 143.3 1313 143.2 1312.4 143.9L1306.8 150.6 1297.8 148.9 1309.3 135.1C1309.9 134.4 1309.8 133.5 1309.1 132.9 1308.4 132.2 1307.4 132.3 1306.8 133.1L1294.1 148.3 1286.3 147.2 1279.6 128.7 1284.3 123.1 1304.4 126.5C1305.4 126.8 1306.4 126 1306.3 125.1 1306.7 124.2 1306 123.6 1305 123.2L1286.8 120.1 1292.7 113 1301.8 114.7C1302.5 114.8 1303.5 114 1303.7 113.3S1303.1 111.6 1302.1 111.2L1295.2 110 1302.4 101.4C1303 100.7 1302.7 99.6 1301.9 99 1301.4 98.6 1300.3 98.4 1299.7 99.2L1292.5 107.8 1289.8 101C1289.6 100.3 1288.8 99.7 1287.7 100 1287.1 100.3 1286.5 101.5 1286.8 102.2L1290 110.7 1284.1 117.8 1277.8 100.5C1277.2 99.6 1276.5 99 1275.4 99.3 1274.7 99.6 1274.1 100.8 1274.4 101.5L1281.6 120.8 1276.9 126.5 1257.5 123.2 1255.1 115.7 1267.8 100.5C1268.4 99.7 1268.3 98.8 1267.6 98.2 1266.8 97.6 1265.7 97.5 1265.1 98.2L1253.6 112 1250.3 103.4 1255.8 96.8C1256.4 96 1256.4 95.1 1255.6 94.5 1254.9 93.9 1254 94 1253.4 94.7L1249.1 99.9 1245.4 89.8C1245.1 89.1 1244 88.5 1243.3 88.8 1242.4 89.4 1241.8 90.1 1242.4 91L1246 101.5 1238.4 100.2C1237.5 100.3 1236.7 100.8 1236.5 101.5 1236.3 102.2 1236.6 102.8 1237.1 103.3 1237.1 103.3 1237.4 103.5 1237.8 103.4L1247.5 105.3 1250.8 113.8 1231.7 110.8C1230.7 110.4 1229.9 111 1229.7 112.1 1229.8 112.6 1229.8 113 1230.3 113.4 1230.5 113.6 1230.8 113.8 1231 114L1252 117.4 1254.5 124.4 1242 139.4 1233.7 137.9 1226.7 119.2C1226.4 118.1 1225.5 117.7 1224.6 118.2 1223.7 118.3 1223.3 119.3 1223.7 120.4L1230 137.3 1220.8 135.9 1217.7 127.5C1217.4 126.8 1216.5 126.5 1215.6 126.6 1214.7 127.1 1214.1 127.8 1214.6 128.7L1216.8 135.1 1206.9 133.5C1206 133.1 1205.3 133.9 1205 134.8 1205 135.2 1205.3 135.9 1205.8 136.3 1205.8 136.3 1206 136.5 1206.3 136.7L1216.9 138.5 1211.8 144.6C1211.4 145.1 1211.2 146.3 1212 146.9 1212.7 147.5 1213.8 147.2 1214.2 146.7L1220.6 139.1 1229.8 140.5 1217.3 155.5C1216.7 156.2 1217 157.3 1217.8 157.9S1219.4 158.5 1220 157.7L1233.7 141.3 1241.4 142.6 1248 161.1 1242.7 167.5 1222.4 163.9C1221.5 164 1220.6 164.5 1220.3 165.4 1220.3 165.9 1220.6 166.5 1221.1 167 1221.3 167.2 1221.6 167.4 1222 167.3L1240.2 170.4 1234.3 177.6 1225.1 176.1C1224.4 176 1223.5 176.5 1223.2 177.4 1223.2 178.3 1223.8 179.2 1224.5 179.4L1231.8 180.5 1225.3 188.4C1224.9 188.9 1225 190.2 1225.5 190.6 1226.2 191.3 1227.6 191.1 1228 190.6L1234.5 182.8 1236.8 189.6C1237 189.8 1237.2 190 1237.5 190.2 1238 190.6 1238.7 190.8 1239.1 190.8 1240 190.2 1240.4 189.3 1240.3 188.4L1237 179.8 1242.9 172.7 1249.3 190.1C1249.6 191.2 1250.6 191.5 1251.2 191.3 1252.3 190.9 1252.7 190 1252.6 189.1L1245.4 169.8 1250.7 163.4 1270.1 166.6 1272.8 173.9 1259.1 190.3C1258.5 191.1 1258.6 192 1259.3 192.6 1260 193.2 1260.9 193.1 1261.5 192.4L1274 177.4 1277.1 186.2 1270.8 193.8C1270.4 194.3 1270.5 195.7 1271.2 196.3 1272 196.9 1273.1 196.6 1273.5 196.1L1278.6 189.9 1282.2 200C1282.5 200.2 1282.5 200.2 1282.7 200.4 1283.2 200.9 1283.9 201 1284.4 201 1285.2 200.4 1285.6 199.5 1285.3 198.9ZM1253.2 160.4L1251.1 159.9 1250.5 158.2 1245 143.2 1244.4 141.4 1245.7 140 1255.7 127.9 1256.9 126.4 1258.8 126.7 1274.5 129.4 1276.3 129.7 1277.2 131.7 1282.4 146.4 1283.2 148.4 1282 149.8 1272 161.9 1270.7 163.4 1268.6 162.9 1253.2 160.4Z" fill="rgba(51, 121, 194, 0.73)"></path><path d="M772.8 238.7L790.5 265.3 788 276.7 782 267.7C781.6 266.6 780.4 266.6 779.2 266.9 778.6 267.6 778.2 269 778.8 269.6L786.8 282.1 784.7 293.4 776.2 285.7 775.4 270.7C775.4 270.7 775.3 270.4 775.3 270.4 775.1 269.6 774 269.1 773.2 269 772 269.4 771.4 270 771.4 271.3L772 282 763.5 274.3 761.4 242.5C761.4 242.5 761.6 242 761.6 242 761.4 241.3 760.4 240.8 759.5 240.7 758.2 240.7 757.3 241.8 757.7 242.9L759.4 270.6 748.7 261.5 748 249.1C748 249.1 748 249.1 747.8 248.8 747.6 248 747 247.4 746.1 247.2 744.9 247.6 743.9 248.4 743.9 249.6L744.6 257.9 736.8 251.2C736.1 250.2 734.9 250.5 734.3 251.2 733.3 251.9 733.3 253.2 734.4 254.1L741.8 260.9 733.8 261C732.7 261.4 731.7 262.2 732 263.3 732 264.6 732.7 265.2 733.9 265.2L746.3 264.4 756.6 273.7 728.5 275.5C727.6 275.3 726.7 276.5 726.7 277.7 727 278.5 727.7 279.5 729 279.5L760.8 277.3 769.2 285 758.5 285.7C757.2 285.7 756.7 286.7 756.7 288 756.6 288.8 757.7 289.7 758.6 289.9L773.4 288.7 782.3 296.3 771.3 300 758.1 293.4C757.1 292.9 756 293.3 755.5 294.3 754.8 294.9 755.3 296.4 756.3 296.9L766 301.7 755 305.4 726.5 290.9C725.5 290.4 724.3 290.8 723.8 291.8 723.3 292.8 723.7 293.9 724.7 294.4L749.6 307.2 736.7 311.5 725.6 305.9C724.6 305.4 723.5 305.8 723 306.8 722.5 307.8 722.8 309 723.8 309.5L731.1 313.4 721.6 316.6C720.4 316.9 719.9 318 720.3 319.1 720.7 320.2 721.7 320.7 722.8 320.4L732.3 317.2 728.8 324.3C728.3 325.3 728.7 326.4 729.7 326.9S731.8 327.1 732.3 326L737.6 315.4 750.9 311 738.5 335.8C738 336.8 738.4 337.9 739.4 338.4 740.4 338.9 741.6 338.6 742.1 337.6L756.2 309.2 767.2 305.5 762.4 315.2C761.9 316.2 762.3 317.3 763.3 317.8 764.3 318.3 765.5 317.9 766 316.9L772.5 303.8 783.2 300.2 780.9 311.1 768.5 319.4C767.9 320.1 767.5 321.5 768.1 322.1 768.9 323.1 769.8 323.2 770.9 322.9L779.9 316.9 777.6 327.8 751.1 345.5C750.1 346.3 749.9 347.2 750.3 348.3 751.1 349.3 752.3 349.3 753.1 349.1L776.6 333.6 773.6 347.3 763.6 354C762.5 354.4 762.5 355.6 762.8 356.8 763.5 357.4 764.9 357.8 765.9 357L772.4 352.7 770.7 362.6C770.2 363.6 770.9 364.6 772.3 365 773.2 365.1 774.2 364.4 774.3 363.5L776.5 353.5 780.9 360.4C781.7 361.4 782.9 361.4 783.6 360.8 784.7 360.4 784.8 359.5 784.6 358.8 784.5 358.4 784.5 358.4 784.3 358L777.6 348 780.7 334.4 796 357.5C796.4 358.6 797.6 358.6 798.8 358.3 799.4 357.6 799.5 356.7 799.3 356 799.1 355.6 799.1 355.6 799.1 355.6L781.7 328.5 783.9 317.7 789.9 326.6C790.6 327.7 791.5 327.8 792.7 327.4 793.3 326.8 793.8 325.8 793.6 325 793.4 324.6 793.4 324.6 793.3 324.2L784.9 311.8 787.2 301 795.6 308.3 796.7 323.1C796.7 324.4 797.9 325.3 798.7 325.4 799.9 325 800.9 324.2 800.5 323.1L799.9 312.3 808.6 319.6 810.5 351.8C810.4 352.7 811.5 353.6 812.4 353.7 813.6 353.3 814.6 352.6 814.6 351.3L812.9 323.6 823.2 332.8 823.8 344.8C823.8 346.1 824.9 347 826.1 346.6 827 346.7 828 346 828 344.7L827.3 336.5 835.1 343.2C835.7 343.8 837 343.8 838 343.1 838.2 342.6 838.3 341.7 838.1 340.9 838.1 340.9 838 340.5 837.8 340.2L830.1 333.5 838.3 332.8C839.2 332.9 840.1 331.8 840.2 330.9 840.1 330.5 840.1 330.5 840.1 330.5 839.7 329.4 838.7 328.9 838 329.1L825.9 329.8 815.3 320.7 843.4 318.9C844.5 318.5 845.2 317.9 845.2 316.6 845.2 316.6 845 316.2 845 316.2 844.8 315.5 844.1 314.8 842.9 314.9L811 316.6 802.6 309.3 813.4 308.7C814.5 308.3 815.6 307.5 815.2 306.4 815.6 306.3 815.4 305.9 815.4 305.9 815.2 305.1 814.2 304.6 813.3 304.5L798.5 305.6 790 297.9 800.6 294.4 813.8 301C814.8 301.5 816.3 301 816.8 299.9 816.9 299.1 816.6 297.9 815.9 297.3L805.9 292.6 816.9 288.9 845.3 303.1C846.3 303.6 847.4 303.2 847.9 302.2 848.4 301.2 848.1 300 847 299.5L822.2 287.2 835.5 282.7 846.1 288C847.2 288.5 848.3 288.2 848.8 287.1S848.9 285 847.9 284.5L840.8 281 850.3 277.8C851.5 277.4 852 276.4 851.6 275.3 851.2 274.1 850.2 273.6 849.1 274L839.6 277.2 843 269.7C843.2 269.2 843.5 268.7 843.4 268.3 843.2 267.9 842.6 267.3 842.1 267 841.1 266.5 839.9 266.9 839.4 267.9L834.3 278.9 821 283.4 833.2 258.2C833.5 257.7 833.7 257.2 833.6 256.8 833.5 256.4 832.8 255.8 832.3 255.5 831.3 255 830.2 255.4 829.7 256.4L815.7 285.1 804.7 288.8 809.8 279.1C810.1 278.6 809.8 277.8 809.7 277.4 809.6 277 809.5 276.7 809 276.4 807.9 275.9 806.4 276.4 806.3 277.3L799.3 290.6 788.7 294.1 790.9 282.9 803.4 274.9C804 274.3 804.5 273.3 804.3 272.5 804.1 272.1 804.1 272.1 803.8 272.2 803.4 271.1 802 270.7 801 271.5L792 277.4 794.1 266.2 821.2 248.7C821.8 248.1 822 247.2 821.7 246.4 821.6 246.1 821.6 246.1 821.6 246.1 820.8 245 819.8 244.5 818.8 245.3L795.3 260.7 798.3 247.1 808.3 240.4C809.3 239.6 809.4 238.7 809.2 238 809.2 238 809.1 237.6 809.1 237.6 808.3 236.6 807 236.6 806.3 236.8L799.4 241.6 801.6 231.6C801.5 231.3 801.3 230.9 801.2 230.5 801.1 230.1 800.5 229.5 799.9 229.2 798.7 229.2 797.5 229.6 797.5 230.9L795.4 240.9 791 233.9C790.2 232.9 788.9 232.9 788.2 233.2 787.2 233.9 787.2 235.2 787.6 236.3L794.3 246.3 791.6 259.9 776.3 236.7C775.5 235.7 774.1 235.3 773.5 236 772.5 236.7 772 237.7 772.8 238.7Z" fill="rgba(51, 121, 194, 0.73)"></path><path d="M922.7 439.9L905.4 460 898.2 460.7 888.9 447.3 892 440.5 917 431.7C917.3 431.6 917.3 431.6 917.5 431.4 918.1 431 918.4 430.4 918.1 429.4 917.6 428.6 917 428.3 916 428.6L894.1 436.3 899 425.9 908.6 422.4C908.6 422.4 908.9 422.2 908.9 422.2 909.4 421.8 909.7 421.2 909.5 420.2 909.4 419.5 908.3 419.1 907.3 419.4L901 421.5 904.7 413.8C905 413.2 904.7 412.2 903.9 411.6S902 411.8 901.4 412.6L898 420 895.7 413.8C895.4 412.8 894.3 412.4 893.4 412.7 892.8 413.1 892.2 413.9 892.5 414.8L896 424.5 890.9 435 883.2 413.1C882.9 412.2 881.8 411.7 881.1 411.8 880.3 412.4 879.7 413.2 880 414.2L889 439 885.7 446 869.8 447.3 865.4 440.9 870 414.9C870.1 414 869.6 413.2 868.7 413S867 413.4 866.8 414.3L862.9 437.3 856.1 427.5 857.9 417.7C858.1 416.8 857.6 416 856.5 415.6S854.8 416 854.6 416.9L853.6 423.8 848.7 416.7C848.1 415.9 847 416 846.2 416.5 845.4 417 845.2 417.9 845.8 418.7L850.7 425.8 844 424.6C843 424.2 842.2 424.7 842.2 425.9 842 426.8 842.6 427.6 843.5 427.7L853.3 429.5 860 439.3 837.1 434.9C836.2 434.7 835.2 435.4 835 436.3S835.4 438 836.3 438.1L862.5 443 866.9 449.3 859.9 463.9 852.4 464.3 832.3 447.1C831.5 446.5 830.5 446.8 829.8 447.3 829.2 448.1 829.4 449.1 830 449.9L847.7 464.9 836.3 465.8 828.5 459C827.7 458.4 826.8 458.7 826 459.3 825.6 459.9 825.6 461 826.4 461.7L831.4 466 823 466.8C822.3 466.9 821.7 467.7 821.5 468.6 821.8 469.5 822.6 470.2 823.3 470.1L831.7 469.3 827.3 474.7C826.9 475.3 827 476.5 827.6 476.8 828.1 477.6 828.8 477.5 829.6 477 829.6 477 829.9 476.8 829.9 476.8L836.6 469 848 468.1 833.1 485.9C832.5 486.7 832.3 487.6 833.1 488.2 833.9 488.8 834.6 488.7 835.1 488.3 835.4 488.1 835.4 488.1 835.4 488.1L852.7 467.6 860.2 467.1 869.5 480.6 866.2 487.1 841 496.3C840.3 496.4 839.9 497.5 840 498.2 840.3 499.2 841.4 499.6 842.3 499.3L864.2 491.6 859.3 501.9 849.7 505.5C848.7 505.8 848.1 506.6 848.7 507.4 849 508.3 850 508.8 850.7 508.7L857.2 506.1 853.5 513.8C853.3 514.6 853.6 515.6 854.4 516.2 854.9 516.3 855.6 516.2 856.1 515.8 856.4 515.7 856.4 515.7 856.4 515.2L860.1 507.6 862.6 514C862.9 515 863.8 515.2 864.5 515.1 864.8 514.9 864.8 514.9 865.1 514.7 865.6 514.4 865.9 513.7 865.8 513L862.3 503.4 867.2 493 874.9 514.9C875.5 515.7 876.3 516.3 877.1 515.8 877.5 515.8 877.5 515.8 877.8 515.7 878.3 515.3 878.4 514.4 878.3 513.7L869.1 488.6 872.4 482 888.5 480.6 892.7 486.7 887.9 512.9C887.8 513.8 888.5 514.9 889.4 515S891.3 514.5 891.5 513.6L895.5 490.6 902 500.1 900.4 510.1C900.2 511 900.8 511.8 901.7 512 902.6 512.1 903.3 511.6 903.5 510.7L904.7 504 909.6 511.1C910 511.7 911.1 512.1 911.9 511.5 912.7 511 912.9 509.7 912.5 509.1L907.6 502 914.3 503.3C914.7 503.3 915.2 503.4 915.5 503.2 916 502.9 916.1 502.4 916.1 502 916.3 501.1 915.8 500.3 914.9 500.1L904.9 498.1 898.3 488.6 921.2 493C921.7 493.1 921.9 492.9 922.5 492.6 922.7 492.4 923 492.2 923.1 491.7 923.2 490.9 922.5 489.8 921.6 489.6L895.6 484.7 891.4 478.6 898.2 464.2 905.7 463.3 926 480.8C926.6 481.1 927.5 481.3 928 480.9 928.3 480.7 928.3 480.7 928.1 480.5 928.9 479.9 928.9 478.8 928.1 478.2L910.4 463.2 922.1 462.1 929.8 468.8C930.4 469.2 931.1 469.1 931.7 468.7 931.7 468.7 931.9 468.5 931.9 468.5 932.7 468 932.7 466.8 931.9 466.2L926.5 461.8 934.9 461C935.4 461.1 935.6 460.9 935.9 460.7 936.4 460.4 936.7 459.7 936.6 459.5 936.5 458.3 935.7 457.7 934.8 457.6L926.4 458.3 930.8 453.4C931.4 452.5 931.4 451.4 930.6 450.8 929.9 450.4 928.8 450.5 928.4 451.1L921.7 458.8 910.3 459.7 925.3 442C925.9 441.2 925.6 440.2 925 439.4 924.4 439.1 923.3 439.1 922.7 439.9ZM887.1 450.9L894.2 461.2 895.3 462.7 894.5 464.4 889.3 475.4 888.2 477.3 886.4 477.4 874.2 478.4 872.4 478.6 871.3 477 864.2 466.7 863.1 465.1 863.8 463.4 869.1 452.4 869.8 450.7 872 450.4 884.1 449.4 886 449.3 887.1 450.9Z" fill="rgba(51, 121, 194, 0.73)"></path><path d="M1449.3 291.4L1438.1 292.2 1440.8 286C1441.2 285.4 1440.9 284.4 1440.1 283.8 1439.2 283.6 1438.2 283.9 1438.1 284.8L1434.4 292.4 1425.7 293.4 1433.4 277.5C1433.5 276.6 1433.3 275.7 1432.6 275.3 1431.6 274.9 1430.6 275.2 1430.4 276.1L1422 293.7 1408.7 294.8 1416.8 281.7 1401.8 284.8 1407.4 272.7 1426.8 270.8C1426.9 271.1 1427.2 270.9 1427.5 270.7 1428 270.4 1428.3 269.7 1428.2 269 1428.1 268.3 1427.3 267.7 1426.4 267.6L1408.9 269.3 1412.8 261.5 1421.2 260.7C1421.7 260.7 1421.9 260.6 1422.2 260.4 1422.4 260.2 1422.8 259.6 1422.7 258.9 1422.6 258.2 1421.8 257.5 1421.1 257.7L1414.3 258.1 1418.9 247.8C1419.5 247 1419 246.2 1418.1 245.6 1417.5 245.3 1416.5 245.6 1416.1 246.7L1411.4 256.6 1407.5 251.1C1407 250.3 1405.8 250.3 1405.3 250.7 1404.5 251.3 1404.3 252.1 1404.9 252.9L1409.8 260 1405.9 267.8 1396 253.7C1395.5 252.9 1394.6 252.7 1393.8 253.3 1393.3 253.6 1392.9 254.7 1393.4 255.5L1404.4 271.2 1398.8 283.3 1391.5 270.1 1386.7 284.4 1379 273.4 1387.1 256C1387.5 254.9 1387 254.1 1386.4 253.8 1385.7 253.4 1384.8 253.7 1384.2 254.5L1377 270.5 1372 263.4 1375.5 255.5C1376.1 254.7 1375.8 253.7 1374.7 253.3 1374.1 253 1373.1 253.3 1372.7 254.3L1369.8 260.3 1363.4 251.1C1362.8 250.3 1362 250.1 1361.2 250.7S1360.2 252.1 1360.8 252.9L1367.2 262.1 1360.6 262.8C1359.5 262.8 1358.9 263.6 1359 264.3 1359 265.5 1359.8 266.1 1360.8 265.8L1369.4 265.2 1374.3 272.3 1356.9 273.6C1355.9 273.9 1355.3 274.7 1355.4 275.4 1355.4 276.5 1356.2 277.1 1357.2 276.9L1376.3 275.2 1384 286.2 1368.9 285.8 1378.9 297.3 1365.6 298.3 1354.6 282.6C1354 281.8 1352.9 281.8 1352.3 282.2 1351.6 282.7 1351.4 283.6 1351.9 284.4L1362 298.9 1353.2 299.6 1348.2 292.5C1347.7 291.7 1346.8 291.5 1346 292.1 1345.5 292.5 1345 293.5 1345.6 294.3L1349.4 299.8 1338.4 300.9C1337.3 300.9 1336.7 301.7 1337 302.7 1337.1 303.4 1337.6 304.2 1338.6 303.9L1349.8 303.1 1347.1 309.3C1346.7 309.9 1347 310.9 1347.6 311.2 1348.3 311.6 1349 311.5 1349.2 311.3 1349.5 311.1 1349.8 310.9 1349.8 310.5L1353.5 302.9 1362.2 301.9 1354.5 317.7C1354.4 318.6 1354.6 319.6 1355.3 320 1355.9 320.3 1356.6 320.2 1357.1 319.8 1357.4 319.6 1357.4 319.6 1357.5 319.2L1365.9 301.6 1379.2 300.5 1371.1 313.6 1386.1 310.5 1380.5 322.6 1361.1 324.4C1360.4 324.5 1359.6 325.1 1359.7 326.2 1359.8 327 1360.6 327.6 1361.5 327.7L1379 326 1375.1 333.8 1366.7 334.6C1365.8 334.5 1365.2 335.3 1365.2 336.4 1365.3 337.1 1366.1 337.7 1367 337.9L1373.6 337.2 1369 347.4C1368.4 348.3 1368.9 349 1369.8 349.6 1370.2 349.7 1370.9 349.6 1371.2 349.4 1371.4 349.3 1371.7 349.1 1371.8 348.6L1376.5 338.7 1380.4 344.2C1380.9 345 1382.1 344.9 1382.6 344.6L1382.6 344.6C1383.4 344 1383.6 343.1 1383 342.4L1378.1 335.3 1382 327.5 1391.9 341.6C1392.4 342.4 1393.3 342.6 1394.1 342S1395 340.6 1394.5 339.8L1383.5 324.1 1389.1 312 1396.4 325.2 1401.2 310.9 1408.9 321.9 1400.8 339.3C1400.4 340.4 1400.9 341.2 1401.5 341.5 1402.2 341.9 1403.1 341.6 1403.7 340.8L1411.1 325.1 1415.9 331.9 1412.4 339.8C1411.8 340.6 1412.1 341.6 1413.2 342 1413.8 342.3 1414.8 342 1415.4 341.2L1418.1 335 1424.5 344.2C1425.1 345 1425.9 345.2 1426.7 344.6S1427.7 343.2 1427.1 342.4L1420.7 333.2 1427.3 332.5C1427.7 332.6 1428 332.4 1428.2 332.2 1428.8 331.9 1428.8 331.4 1428.9 331 1428.9 329.8 1428.1 329.2 1427.1 329.5L1418.5 330.1 1413.6 323 1431 321.7C1431.3 321.5 1431.6 321.3 1431.8 321.2 1432.4 320.8 1432.4 320.3 1432.5 319.9 1432.5 318.8 1431.7 318.1 1430.7 318.4L1411.6 320.1 1403.9 309.1 1419 309.5 1409.1 298 1422.3 297 1433.3 312.7C1433.9 313.5 1435 313.5 1435.6 313.1 1436.3 312.5 1436.5 311.7 1436 310.9L1426.1 296.7 1434.7 295.7 1439.7 302.8C1440.2 303.6 1441.1 303.7 1441.9 303.2S1442.9 301.8 1442.3 301L1438.5 295.5 1449.5 294.4C1449.9 294.5 1450.2 294.3 1450.4 294.1 1450.7 294 1451 293.3 1450.9 292.6 1450.8 291.9 1450.3 291.1 1449.3 291.4ZM1412 306.1L1399.6 305.8 1395.7 317.5 1389.6 306.5 1377.7 309 1383.9 298.4 1375.9 289.2 1388.3 289.5 1392.2 277.8 1398.1 288.5 1410.2 286.3 1403.8 296.6 1412 306.1Z" fill="rgba(51, 121, 194, 0.73)"></path></g><defs><mask id="SvgjsMask1006"><rect width="1440" height="560" fill="#ffffff"></rect></mask><filter id="SvgjsFilter1007"><feGaussianBlur stdDeviation="1"></feGaussianBlur></filter></defs></svg>